<?xml version="1.0" encoding="UTF-8" standalone="no"?>
<!-- Created with Inkscape (http://www.inkscape.org/) -->

<svg
   xmlns:dc="http://purl.org/dc/elements/1.1/"
   xmlns:cc="http://creativecommons.org/ns#"
   xmlns:rdf="http://www.w3.org/1999/02/22-rdf-syntax-ns#"
   xmlns:svg="http://www.w3.org/2000/svg"
   xmlns="http://www.w3.org/2000/svg"
   xmlns:sodipodi="http://sodipodi.sourceforge.net/DTD/sodipodi-0.dtd"
   xmlns:inkscape="http://www.inkscape.org/namespaces/inkscape"
   width="132.4617"
   height="180.00002"
   id="svg2"
   version="1.1"
   inkscape:version="0.48.2 r9819"
   sodipodi:docname="arrow-toleft.svg">
  <defs
     id="defs4" />
  <sodipodi:namedview
     id="base"
     pagecolor="#ffffff"
     bordercolor="#666666"
     borderopacity="1.0"
     inkscape:pageopacity="0.0"
     inkscape:pageshadow="2"
     inkscape:zoom="5.6"
     inkscape:cx="16.36177"
     inkscape:cy="48.55785"
     inkscape:document-units="px"
     inkscape:current-layer="layer1"
     showgrid="false"
     fit-margin-top="0"
     fit-margin-left="0"
     fit-margin-right="0"
     fit-margin-bottom="0"
     inkscape:window-width="1920"
     inkscape:window-height="960"
     inkscape:window-x="0"
     inkscape:window-y="0"
     inkscape:window-maximized="1" />
  <metadata
     id="metadata7">
    <rdf:RDF>
      <cc:Work
         rdf:about="">
        <dc:format>image/svg+xml</dc:format>
        <dc:type
           rdf:resource="http://purl.org/dc/dcmitype/StillImage" />
        <dc:title></dc:title>
      </cc:Work>
    </rdf:RDF>
  </metadata>
  <g
     inkscape:label="Layer 1"
     inkscape:groupmode="layer"
     id="layer1"
     transform="translate(-288.84189,4.409566)">
    <path
       style="fill:#ffffff"
       d="m 289.80359,174.74898 c 0,-0.46281 17.80648,-20.72293 39.56997,-45.02248 l 39.56998,-44.18103 -2.70537,-3.22751 C 364.75022,80.54282 346.72734,60.30294 326.18735,37.34044 l -37.34546,-41.750006 26.39196,0 26.39195,0 2.72442,3.25 c 1.49843,1.7875 19.42593,21.851606 39.83889,44.586906 20.41297,22.7353 37.11448,41.68494 37.11448,42.11032 0,0.42538 -14.89637,17.37378 -33.10304,37.6631 -18.20667,20.28933 -36.17219,40.37719 -39.92337,44.63969 l -6.82032,7.75 -25.82664,0 c -14.20465,0 -25.82663,-0.37866 -25.82663,-0.84147 z"
       id="path3055"
       inkscape:connector-curvature="0" />
  </g>
</svg>
