<?xml version="1.0" encoding="UTF-8" standalone="no"?>
<!-- Generator: Adobe Illustrator 16.0.0, SVG Export Plug-In . SVG Version: 6.00 Build 0)  -->

<svg
   xmlns:dc="http://purl.org/dc/elements/1.1/"
   xmlns:cc="http://creativecommons.org/ns#"
   xmlns:rdf="http://www.w3.org/1999/02/22-rdf-syntax-ns#"
   xmlns:svg="http://www.w3.org/2000/svg"
   xmlns="http://www.w3.org/2000/svg"
   xmlns:sodipodi="http://sodipodi.sourceforge.net/DTD/sodipodi-0.dtd"
   xmlns:inkscape="http://www.inkscape.org/namespaces/inkscape"
   version="1.1"
   id="Layer_1"
   x="0px"
   y="0px"
   width="287.96875"
   height="252.3125"
   viewBox="0 0 287.96875 252.3125"
   enable-background="new 0 0 300 300"
   xml:space="preserve"
   inkscape:version="0.48.2 r9819"
   sodipodi:docname="box.svg"><metadata
   id="metadata9"><rdf:RDF><cc:Work
       rdf:about=""><dc:format>image/svg+xml</dc:format><dc:type
         rdf:resource="http://purl.org/dc/dcmitype/StillImage" /></cc:Work></rdf:RDF></metadata><defs
   id="defs7" /><sodipodi:namedview
   pagecolor="#ffffff"
   bordercolor="#666666"
   borderopacity="1"
   objecttolerance="10"
   gridtolerance="10"
   guidetolerance="10"
   inkscape:pageopacity="0"
   inkscape:pageshadow="2"
   inkscape:window-width="1920"
   inkscape:window-height="960"
   id="namedview5"
   showgrid="false"
   fit-margin-top="0"
   fit-margin-left="0"
   fit-margin-right="0"
   fit-margin-bottom="0"
   inkscape:zoom="0.78666667"
   inkscape:cx="441.32467"
   inkscape:cy="70.573891"
   inkscape:window-x="0"
   inkscape:window-y="0"
   inkscape:window-maximized="1"
   inkscape:current-layer="Layer_1" />
<path
   d="m 147.53875,139.10375 c 10.64,16.04 21.63,31.86 31.97,48.102 1.86,-0.33 3.72,-0.721 5.521,-1.33 19.021,-6.461 38.109,-12.721 57.17,-19.04 3.5,-1.2 6.971,-2.55 10.619,-3.25 -0.5,13.22 -0.09,26.46 -0.22,39.688 0.07,5.021 -0.29,10.07 0.399,15.062 l -0.471,-1.13 c -2.8,1.13 -5.578,2.33 -8.51,3.1 -21.029,7.07 -42.1,14 -63.13,21.08 -8.989,3.02 -18.01,5.93 -26.97,9.029 -2.12,0.66 -4.25,1.311 -6.41,1.83 0.092,-37.721 0.042,-75.43 0.032,-113.141 m -39.04,48.051 c 10.25,-16.279 21.36,-32.011 31.89,-48.109 0.02,37.729 -0.05,75.47 0.03,113.199 -4.22,-1 -8.29,-2.51 -12.38,-3.93 -5.12,-1.641 -10.22,-3.33 -15.31,-5.051 -1.91,-0.62 -3.8,-1.27 -5.71,-1.88 -23.92,-8.03 -47.87,-16 -71.83,-23.931 0.2,-17.949 0.34,-35.92 -0.07,-53.869 1.68,0.369 3.36,0.76 4.99,1.31 11.56,3.98 23.21,7.7 34.79,11.61 9.34,3.07 18.67,6.199 27.98,9.37 1.82,0.63 3.71,0.999 5.62,1.281 m 81.499,-71.681 c 21.631,-7.35 43.371,-14.38 64.99,-21.73 8.891,13.9 18.289,27.47 27.33,41.28 1.721,2.801 4.039,5.262 5.34,8.301 -2.779,1.17 -5.67,2.051 -8.551,2.92 -32.05,10.66 -64.05,21.461 -96.17,31.891 -10.8,-16.63 -22.229,-32.859 -32.84,-49.6 13.422,-3.952 26.572,-8.802 39.901,-13.062 m -157.049,-21.73 c 34.97,11.82 70.08,23.22 105,35.17 -11.16,16.289 -22.03,32.779 -32.95,49.229 -32.13,-10.429 -64.13,-21.249 -96.18,-31.899 -2.86,-0.871 -5.73,-1.74 -8.49,-2.892 1.05,-2.88 3.29,-5.1 4.86,-7.688 9.18,-14.02 18.72,-27.81 27.76,-41.92 m 114.581,-36.38 c 9.289,2.52 18.289,6 27.479,8.87 5,1.7 10,3.37 15.021,5.01 12.979,4.33 25.939,8.73 38.959,12.94 5.062,1.82 10.201,3.39 15.291,5.11 -20.189,6.46 -40.221,13.41 -60.391,19.94 -4.96,1.8 -10,3.4 -15.02,5.04 -3.95,1.38 -7.92,2.68 -11.892,4.01 -3.108,1.11 -6.271,2.11 -9.47,2.93 0.082,-21.28 0.052,-42.57 0.023,-63.85 m -19.171,3.76 c 3.98,-1.35 7.95,-2.75 12.03,-3.78 0,21.02 -0.03,42.04 0.02,63.07 -3.26,-0.14 -6.43,-0.91 -9.45,-2.12 -3.98,-1.37 -8.01,-2.6 -11.95,-4.09 -0.54,-0.13 -1.6,-0.38 -2.14,-0.5 -9.24,-3.34 -18.63,-6.25 -27.92,-9.46 -3.97,-1.27 -7.95,-2.56 -11.86,-3.99 -11.16,-3.6 -22.25,-7.39 -33.41,-10.97 28.25,-9.31 56.45,-18.78 84.68,-28.16 m 54.61,-61.04 c 34.891,11.96 70,23.25 104.93,35.09 -10.988,16.32 -21.738,32.81 -32.83,49.05 -2.02,-0.19 -3.938,-0.87 -5.85,-1.49 -10.41,-3.58 -20.9,-6.92 -31.32,-10.46 -14.01,-4.67 -28.01,-9.31 -42.01,-14.01 -8.59,-2.62 -16.93,-6.14 -25.71,-8.09 0.53,-1.03 1.05,-2.07 1.64,-3.07 10.3,-15.72 21.03,-31.18 31.15,-47.02 m -182.93,35.09 c 34.92,-11.86 70.06,-23.09 104.92,-35.12 7.85,12.46 16.32,24.54 24.39,36.87 2.79,4.43 6.13,8.52 8.41,13.25 -8.78,1.95 -17.11,5.46 -25.7,8.09 -26.43,8.71 -52.71,17.87 -79.26,26.18 -10.76,-16.53 -21.85,-32.84 -32.76,-49.27"
   style="fill:#1a1a1a;stroke:#000000;stroke-width:0.1;stroke-miterlimit:4;stroke-opacity:1;stroke-dasharray:none"
   inkscape:connector-curvature="0" />
</svg>